<?xml version="1.0" standalone="no"?>
<!DOCTYPE svg PUBLIC "-//W3C//DTD SVG 20010904//EN"
 "http://www.w3.org/TR/2001/REC-SVG-20010904/DTD/svg10.dtd">
<svg version="1.0" xmlns="http://www.w3.org/2000/svg"
 width="201.000000pt" height="201.000000pt" viewBox="0 0 201.000000 201.000000"
 preserveAspectRatio="xMidYMid meet">
<metadata>
Created by potrace 1.14, written by Peter Selinger 2001-2017
</metadata>
<g transform="translate(0.000000,201.000000) scale(0.100000,-0.100000)"
fill="#000000" stroke="none">
<path d="M705 2000 c-4 -6 3 -30 15 -55 11 -24 23 -56 26 -72 2 -15 14 -70 26
-120 l22 -93 208 0 207 0 10 38 c6 20 22 87 37 147 15 61 32 113 37 116 19 13
2 44 -23 44 -23 0 -25 -4 -25 -43 0 -82 -87 -127 -165 -87 -36 19 -54 49 -54
95 -1 31 -4 35 -26 35 -23 0 -25 -4 -25 -43 0 -37 -5 -48 -33 -73 -46 -41
-110 -39 -167 6 -14 11 -20 28 -20 63 0 40 -3 47 -22 50 -11 2 -24 -2 -28 -8z"/>
<path d="M605 1726 c-16 -7 -39 -23 -50 -36 l-20 -23 25 8 c46 14 80 35 80 50
0 18 3 18 -35 1z"/>
<path d="M1364 1729 c-9 -15 4 -27 51 -45 39 -15 43 -18 29 -29 -27 -19 -7
-37 37 -34 21 2 44 -2 51 -9 9 -9 7 -12 -10 -12 -12 0 -22 -4 -22 -9 0 -18 31
-33 60 -29 21 3 35 -1 47 -14 16 -18 16 -18 0 -12 -9 3 -24 3 -33 0 -28 -11
12 -46 51 -46 18 0 39 -7 46 -17 13 -15 11 -16 -13 -10 -16 4 -30 3 -34 -5
-10 -16 33 -48 65 -48 15 0 31 -8 39 -20 11 -18 10 -19 -18 -13 -34 6 -37 -2
-14 -35 9 -14 26 -22 44 -22 22 0 30 -6 38 -30 l11 -30 -25 17 c-18 11 -28 13
-36 5 -17 -17 17 -62 52 -69 17 -3 30 -9 30 -13 0 -5 3 -16 7 -25 6 -16 5 -16
-20 -1 -30 20 -42 8 -33 -30 4 -15 20 -31 41 -41 28 -13 35 -22 35 -46 l0 -29
-18 23 c-18 21 -52 22 -52 2 0 -19 43 -76 61 -80 20 -6 24 -19 13 -48 -6 -14
-8 -13 -21 5 -16 22 -39 26 -45 8 -8 -22 12 -78 32 -91 13 -8 20 -23 20 -44 0
-41 -11 -42 -29 -3 -17 40 -35 33 -39 -15 -2 -27 3 -47 18 -67 19 -26 20 -33
9 -66 l-13 -37 -6 31 c-4 17 -10 36 -14 42 -8 13 -35 16 -37 5 -8 -52 -6 -74
7 -105 16 -35 16 -38 -6 -72 -26 -43 -29 -44 -22 -11 6 35 -6 75 -23 75 -30 0
-46 -90 -24 -132 10 -18 6 -26 -26 -57 -27 -26 -34 -30 -25 -13 17 35 9 77
-15 77 -31 0 -61 -68 -48 -110 10 -32 9 -34 -36 -66 -43 -32 -45 -32 -29 -8
28 43 27 89 -1 89 -28 0 -63 -54 -69 -105 -2 -24 -10 -46 -16 -48 -6 -3 -29
-13 -50 -22 l-40 -17 33 37 c36 41 37 68 3 73 -31 5 -79 -46 -87 -91 -6 -31
-12 -38 -44 -47 -66 -18 -75 -13 -36 21 36 32 45 63 21 72 -26 10 -98 -36
-119 -76 -18 -35 -22 -37 -68 -37 -36 0 -49 4 -49 15 0 21 -59 85 -79 85 -9 0
-21 4 -27 10 -5 5 -15 6 -23 1 -22 -14 -4 -59 32 -81 25 -16 28 -20 12 -20
-11 0 -37 5 -57 10 -32 9 -39 17 -48 50 -11 43 -60 90 -92 90 -18 0 -20 -4
-14 -32 3 -18 17 -43 32 -55 32 -29 25 -29 -36 2 -47 24 -50 28 -50 64 0 45
-39 101 -71 101 -24 0 -25 -25 0 -73 16 -31 16 -35 2 -27 -55 32 -64 47 -65
103 -1 39 -6 61 -20 76 -21 23 -45 28 -47 9 -3 -28 4 -64 14 -83 9 -18 9 -19
-7 -6 -9 8 -26 27 -37 42 -17 25 -19 33 -9 67 10 31 9 45 -4 75 -8 20 -20 37
-25 37 -18 0 -32 -40 -26 -73 6 -31 6 -31 -20 10 -24 40 -25 44 -10 67 10 15
15 40 13 68 -2 35 -7 43 -23 43 -14 0 -21 -8 -23 -25 -6 -40 -19 -44 -31 -9
-10 28 -9 35 9 54 24 26 35 83 21 105 -9 13 -12 13 -27 -1 -9 -9 -19 -32 -24
-50 l-7 -34 -8 47 c-6 43 -5 49 19 70 16 14 29 38 33 61 5 33 3 37 -16 37 -15
0 -27 -12 -42 -45 l-21 -45 -22 43 c-25 49 -56 62 -56 23 0 -39 20 -75 51 -88
19 -9 30 -23 34 -43 4 -16 9 -39 11 -50 3 -14 1 -13 -10 6 -8 14 -27 34 -41
43 -22 15 -26 15 -31 2 -11 -29 28 -90 65 -102 28 -9 37 -20 52 -60 l18 -49
-20 24 c-24 30 -67 53 -74 41 -20 -33 37 -100 85 -100 22 0 33 -10 60 -53 19
-30 24 -45 14 -36 -35 31 -85 52 -97 40 -29 -29 54 -97 109 -90 24 3 36 -4 74
-45 l45 -49 -35 22 c-40 24 -100 29 -100 7 0 -8 14 -26 32 -41 29 -24 38 -27
84 -22 47 5 57 2 93 -25 23 -16 41 -31 41 -33 0 -2 -12 0 -27 3 -26 7 -47 7
-80 3 -24 -2 -13 -31 20 -51 38 -24 78 -25 117 -5 26 13 32 13 82 -10 49 -22
51 -24 23 -25 -58 -3 -76 -7 -88 -19 -21 -21 27 -51 81 -51 35 0 52 6 72 25
26 25 27 25 91 11 35 -7 57 -16 49 -19 -8 -3 -35 -11 -60 -19 -83 -24 -49 -76
41 -62 38 6 99 52 99 75 0 5 21 9 48 9 42 0 50 -4 75 -35 41 -52 121 -68 165
-32 19 15 -13 45 -57 53 -66 11 -66 16 -2 30 63 13 64 13 93 -11 38 -32 114
-35 149 -5 24 20 24 20 4 36 -15 12 -35 15 -84 11 l-64 -5 69 29 c66 29 70 29
98 13 39 -23 101 -13 135 21 22 22 24 27 11 35 -22 14 -56 12 -97 -5 -54 -23
-52 -19 13 29 35 26 63 40 68 35 6 -5 29 -9 52 -9 33 0 49 7 74 30 17 16 29
34 25 40 -11 18 -58 11 -105 -16 l-45 -25 50 50 c44 45 54 51 91 51 32 0 49 7
73 29 31 29 39 55 21 66 -12 7 -47 -10 -77 -38 -30 -27 -29 -18 4 38 24 38 33
45 59 45 24 0 40 9 64 36 54 62 18 94 -43 36 l-27 -26 16 47 c10 31 22 47 33
47 25 0 59 27 77 62 14 26 14 32 1 45 -12 12 -18 9 -47 -24 -29 -33 -33 -35
-27 -13 4 14 7 34 7 45 0 14 10 25 30 32 20 8 36 24 46 48 28 69 -11 92 -45
28 l-20 -38 -1 48 c0 33 4 47 13 47 22 0 47 35 54 72 10 64 -38 59 -53 -5 l-8
-32 -6 40 c-4 32 -1 46 17 68 24 30 30 72 13 97 -9 13 -12 12 -25 -4 -8 -11
-15 -34 -16 -50 -1 -28 -2 -26 -13 14 -10 39 -10 46 6 62 22 22 23 71 2 89
-13 10 -17 10 -25 -2 -5 -8 -9 -23 -9 -34 -1 -17 -3 -16 -15 7 -13 24 -13 30
2 55 14 26 14 32 2 58 -18 38 -33 35 -39 -7 l-5 -32 -12 27 c-8 17 -9 35 -4
50 10 25 -10 87 -29 87 -11 0 -13 -12 -10 -50 l2 -25 -20 25 c-16 19 -18 29
-9 47 7 17 6 28 -7 48 -20 31 -42 28 -38 -5 4 -21 2 -22 -12 -11 -9 7 -16 28
-16 46 0 18 -8 39 -18 48 -27 25 -35 21 -28 -14 5 -27 4 -30 -9 -19 -8 7 -15
23 -15 36 0 24 -31 64 -50 64 -12 0 -12 -2 0 -34 6 -17 6 -27 -2 -32 -6 -4 -8
-3 -4 4 7 12 -56 68 -85 75 -11 3 -22 1 -25 -4z"/>
<path d="M497 1702 c-10 -10 -17 -30 -17 -45 0 -16 -8 -30 -21 -37 -19 -11
-20 -10 -9 10 9 16 9 25 1 33 -17 17 -44 -16 -46 -57 -1 -20 -8 -44 -16 -53
-12 -17 -12 -17 5 -2 13 12 29 15 55 12 27 -4 41 0 51 12 11 14 11 18 0 25 -7
4 -20 5 -29 2 -13 -5 -14 -3 -3 10 9 11 23 15 50 11 27 -4 42 -1 51 11 11 13
9 17 -14 26 -34 13 -38 13 -29 -2 5 -7 3 -8 -5 -3 -9 5 -10 10 -2 18 13 13 15
47 3 47 -5 0 -16 -8 -25 -18z"/>
<path d="M339 1579 c-6 -12 -9 -36 -6 -55 4 -23 1 -37 -11 -47 -16 -14 -17
-13 -17 13 0 38 -16 40 -34 4 -10 -20 -11 -35 -4 -54 7 -19 5 -32 -9 -55 l-18
-30 6 31 c8 40 -19 66 -35 35 -14 -26 -14 -74 0 -88 8 -8 7 -21 -2 -49 l-14
-38 -5 40 c-3 26 -10 39 -20 39 -22 0 -26 -72 -5 -95 13 -14 14 -25 7 -51 l-9
-34 -8 27 c-9 35 -30 54 -41 36 -14 -23 -4 -82 17 -100 15 -13 19 -27 17 -55
l-3 -38 -19 38 c-20 41 -39 44 -44 8 -10 -64 42 -113 93 -89 27 12 55 54 55
83 0 26 -38 17 -54 -12 l-15 -28 -1 27 c0 15 7 33 16 40 45 36 74 68 74 82 0
21 -29 20 -53 -1 -20 -17 -20 -17 -14 0 4 10 7 25 7 33 0 8 8 14 19 14 26 0
71 38 71 61 0 25 -25 24 -50 -1 -24 -24 -25 -19 -5 20 10 20 23 30 39 30 20 0
66 36 66 53 0 12 -45 8 -59 -5 -10 -11 -10 -8 0 15 10 21 19 27 44 27 31 0 65
25 65 48 0 15 -15 15 -43 0 -21 -11 -21 -10 -5 13 11 17 23 23 41 21 32 -4 67
14 67 34 0 11 -9 14 -32 12 -32 -3 -33 -2 -30 30 4 38 -20 45 -39 11z"/>
<path d="M600 1248 l0 -133 125 125 c69 69 125 128 125 132 0 5 -56 8 -125 8
l-125 0 0 -132z"/>
<path d="M1147 1373 c-2 -5 -35 -136 -73 -291 l-68 -284 -67 265 c-37 146 -70
271 -74 277 -5 8 -52 -33 -136 -116 l-129 -129 0 -272 0 -273 85 0 85 0 2 252
3 252 59 -219 c33 -121 63 -235 68 -252 l9 -33 89 0 89 0 14 48 c8 26 41 145
73 265 l59 218 3 -265 2 -266 79 0 c63 0 80 3 85 16 3 9 6 195 6 415 l0 399
-129 0 c-72 0 -132 -3 -134 -7z"/>
</g>
</svg>
